<svg xmlns="http://www.w3.org/2000/svg" width="90" height="32" viewBox="0 0 90 32" fill="none">
<path d="M0 0.447013C0 0.200385 0.200474 0 0.447212 0H13.1079C17.8731 0 21.8516 1.5106 25.0439 4.53179C28.236 7.55299 29.8244 11.4065 29.8244 16.1078C29.8244 20.7476 28.236 24.5549 25.0439 27.5299C21.8516 30.5049 17.8731 31.9846 13.1079 31.9846H0.447212C0.200474 31.9846 0 31.7842 0 31.5376V0.447013ZM13.1079 24.6166C15.0819 24.6166 16.809 23.7842 18.3048 22.1348C19.7853 20.4855 20.5409 18.4355 20.5409 16.0154C20.5409 13.6262 19.8007 11.5761 18.3048 9.89595C16.809 8.2158 15.0819 7.36802 13.1079 7.36802H9.09845V24.6166H13.1079Z" fill="white"/>
<path d="M39.3027 0H48.4628C48.6479 0 48.8175 0.123314 48.8793 0.29287L59.9824 31.3834C60.0904 31.6763 59.8744 31.9846 59.566 31.9846H51.1924C50.992 31.9846 50.8222 31.8613 50.7606 31.6763L48.9564 26.2351C48.8946 26.0501 48.725 25.9268 48.5246 25.9268H38.3775C38.177 25.9268 38.0073 26.0501 37.9457 26.2351L36.1414 31.6763C36.0797 31.8613 35.9101 31.9846 35.7096 31.9846H27.9837C27.6752 31.9846 27.4593 31.6763 27.5672 31.3834L38.871 0.29287C38.9326 0.123314 39.1022 0 39.3027 0ZM46.5352 18.8362L43.4818 9.69556L40.4284 18.8362H46.5352Z" fill="white"/>
<path d="M61.7092 0.447013C61.7092 0.200385 61.9097 0 62.1564 0H76.2822C79.5823 0 82.466 1.03276 84.9026 3.09826C87.3391 5.16377 88.5727 7.98459 88.5727 11.5607C88.5727 13.8112 88.0176 15.7842 86.9073 17.4798C85.8895 19.052 84.5479 20.3005 82.8824 21.2101C82.6511 21.3333 82.5739 21.6109 82.7128 21.8265L88.8812 31.2909C89.0816 31.5839 88.8658 31.9846 88.5111 31.9846H79.9061C79.7519 31.9846 79.5977 31.8922 79.5206 31.7533L74.4162 22.921H70.823V31.5221C70.823 31.7688 70.6226 31.9691 70.3759 31.9691H62.1719C61.9251 31.9691 61.7246 31.7688 61.7246 31.5221V0.447013H61.7092ZM73.3984 15.9229C77.4387 15.9229 79.4589 14.4894 79.4589 11.6378C79.4589 8.60116 77.4234 7.09057 73.3522 7.09057H70.8077V15.9229H73.3984Z" fill="white"/>
</svg>